<svg xmlns="http://www.w3.org/2000/svg" viewBox="0 0 1200 760" fill="none">
<defs><linearGradient id="bg" x1="0" y1="0" x2="1" y2="1"><stop stop-color="#090913"/><stop offset="1" stop-color="#17112a"/></linearGradient><linearGradient id="g" x1="0" y1="0" x2="1" y2="1"><stop stop-color="#8b5cf6"/><stop offset="1" stop-color="#38bdf8"/></linearGradient><filter id="blur"><feGaussianBlur stdDeviation="55"/></filter></defs>
<rect width="1200" height="760" rx="46" fill="url(#bg)"/>
<circle cx="940" cy="100" r="230" fill="#8b5cf6" opacity=".22" filter="url(#blur)"/><circle cx="180" cy="650" r="260" fill="#38bdf8" opacity=".12" filter="url(#blur)"/>
<rect x="125" y="92" width="780" height="505" rx="34" fill="#0d0d18" stroke="#8b5cf6" stroke-opacity=".28" stroke-width="2"/>
<rect x="165" y="136" width="700" height="54" rx="18" fill="#ffffff" opacity=".06"/><circle cx="195" cy="163" r="9" fill="#8b5cf6"/><circle cx="225" cy="163" r="9" fill="#38bdf8"/><circle cx="255" cy="163" r="9" fill="#ffffff" opacity=".25"/>
<rect x="165" y="230" width="205" height="135" rx="24" fill="#ffffff" opacity=".07" stroke="#ffffff" stroke-opacity=".08"/><rect x="400" y="230" width="205" height="135" rx="24" fill="#ffffff" opacity=".07" stroke="#ffffff" stroke-opacity=".08"/><rect x="635" y="230" width="230" height="135" rx="24" fill="#ffffff" opacity=".07" stroke="#ffffff" stroke-opacity=".08"/>
<rect x="190" y="264" width="120" height="14" rx="7" fill="url(#g)"/><rect x="190" y="296" width="150" height="12" rx="6" fill="#ffffff" opacity=".22"/><rect x="190" y="323" width="95" height="12" rx="6" fill="#ffffff" opacity=".13"/>
<circle cx="458" cy="298" r="38" fill="url(#g)" opacity=".9"/><circle cx="512" cy="298" r="38" fill="#ffffff" opacity=".13"/><circle cx="566" cy="298" r="38" fill="#ffffff" opacity=".08"/>
<path d="M670 320c45-72 95-72 148 0" stroke="url(#g)" stroke-width="10" stroke-linecap="round"/><path d="M690 280h130" stroke="#fff" opacity=".18" stroke-width="12" stroke-linecap="round"/>
<rect x="165" y="405" width="700" height="130" rx="28" fill="#ffffff" opacity=".055"/><path d="M210 470h190M210 505h125M465 470h180M465 505h260" stroke="#fff" opacity=".18" stroke-width="14" stroke-linecap="round"/>
<rect x="810" y="270" width="245" height="385" rx="38" fill="#080812" stroke="#8b5cf6" stroke-opacity=".38" stroke-width="3"/><rect x="835" y="315" width="195" height="45" rx="16" fill="#ffffff" opacity=".07"/><rect x="835" y="390" width="195" height="165" rx="26" fill="#ffffff" opacity=".06"/><path d="M865 490h130M865 522h90" stroke="url(#g)" stroke-width="12" stroke-linecap="round"/>
</svg>