<svg xmlns="http://www.w3.org/2000/svg" viewBox="0 0 1200 760" fill="none"><defs><linearGradient id="bg" x1="0" y1="0" x2="1" y2="1"><stop stop-color="#060711"/><stop offset="1" stop-color="#1b1230"/></linearGradient><linearGradient id="g" x1="0" y1="0" x2="1" y2="1"><stop stop-color="#8b5cf6"/><stop offset=".55" stop-color="#38bdf8"/><stop offset="1" stop-color="#22c55e"/></linearGradient><filter id="b"><feGaussianBlur stdDeviation="55"/></filter></defs><rect width="1200" height="760" rx="46" fill="url(#bg)"/><circle cx="600" cy="350" r="300" fill="#8b5cf6" opacity=".14" filter="url(#b)"/><circle cx="1010" cy="130" r="220" fill="#38bdf8" opacity=".14" filter="url(#b)"/><rect x="110" y="150" width="420" height="330" rx="38" fill="#0c0c16" stroke="#8b5cf6" stroke-opacity=".28" stroke-width="2"/><rect x="150" y="205" width="340" height="54" rx="18" fill="#fff" opacity=".06"/><rect x="150" y="295" width="150" height="130" rx="24" fill="#fff" opacity=".055"/><rect x="330" y="295" width="160" height="130" rx="24" fill="#fff" opacity=".055"/><path d="M178 360h85M358 350h95M358 386h70" stroke="#fff" opacity=".18" stroke-width="12" stroke-linecap="round"/><circle cx="690" cy="320" r="92" fill="none" stroke="url(#g)" stroke-width="10" opacity=".9"/><path d="M690 230v-55M690 410v75M598 320h-70M782 320h80" stroke="url(#g)" stroke-width="7" stroke-linecap="round"/><circle cx="690" cy="320" r="42" fill="#0b1020" stroke="#fff" stroke-opacity=".18"/><path d="M670 320c12-22 28-22 40 0M672 343h36" stroke="#7dd3fc" stroke-width="7" stroke-linecap="round"/><rect x="835" y="165" width="255" height="120" rx="30" fill="#fff" opacity=".06"/><rect x="835" y="340" width="255" height="120" rx="30" fill="#fff" opacity=".06"/><rect x="835" y="515" width="255" height="120" rx="30" fill="#fff" opacity=".06"/><path d="M868 225h160M868 400h140M868 575h170" stroke="url(#g)" stroke-width="12" stroke-linecap="round"/><path d="M760 320c70-90 90-95 135-95M760 340c70 55 90 60 135 60M760 360c70 160 90 170 135 215" stroke="url(#g)" stroke-width="5" stroke-linecap="round" opacity=".85"/><circle cx="895" cy="225" r="11" fill="#8b5cf6"/><circle cx="895" cy="400" r="11" fill="#38bdf8"/><circle cx="895" cy="575" r="11" fill="#22c55e"/></svg>