<svg xmlns="http://www.w3.org/2000/svg" viewBox="0 0 1200 760" fill="none"><defs><linearGradient id="bg" x1="0" y1="0" x2="1" y2="1"><stop stop-color="#07070d"/><stop offset="1" stop-color="#111827"/></linearGradient><linearGradient id="g" x1="0" y1="0" x2="1" y2="1"><stop stop-color="#a855f7"/><stop offset="1" stop-color="#22c55e"/></linearGradient><filter id="b"><feGaussianBlur stdDeviation="55"/></filter></defs><rect width="1200" height="760" rx="46" fill="url(#bg)"/><circle cx="950" cy="120" r="260" fill="#8b5cf6" opacity=".18" filter="url(#b)"/><circle cx="260" cy="660" r="260" fill="#22c55e" opacity=".12" filter="url(#b)"/><rect x="120" y="92" width="960" height="545" rx="38" fill="#0c0c14" stroke="#8b5cf6" stroke-opacity=".24" stroke-width="2"/><rect x="120" y="92" width="110" height="545" rx="38" fill="#ffffff" opacity=".045"/><rect x="155" y="145" width="42" height="42" rx="14" fill="url(#g)"/><rect x="155" y="220" width="42" height="42" rx="14" fill="#fff" opacity=".08"/><rect x="155" y="295" width="42" height="42" rx="14" fill="#fff" opacity=".08"/><rect x="275" y="145" width="330" height="170" rx="28" fill="#fff" opacity=".06"/><rect x="635" y="145" width="385" height="170" rx="28" fill="#fff" opacity=".06"/><path d="M315 205h170M315 245h240" stroke="#fff" opacity=".18" stroke-width="14" stroke-linecap="round"/><path d="M680 250c55-88 115-88 180 0 30-45 70-55 120-20" stroke="url(#g)" stroke-width="10" stroke-linecap="round" fill="none"/><rect x="275" y="350" width="745" height="210" rx="32" fill="#fff" opacity=".045"/><rect x="315" y="392" width="160" height="42" rx="16" fill="url(#g)" opacity=".9"/><rect x="315" y="460" width="650" height="18" rx="9" fill="#fff" opacity=".12"/><rect x="315" y="505" width="520" height="18" rx="9" fill="#fff" opacity=".09"/><circle cx="930" cy="424" r="34" fill="#22c55e" opacity=".8"/><path d="M912 424l12 12 26-28" stroke="#fff" stroke-width="8" stroke-linecap="round" stroke-linejoin="round"/></svg>